<svg width="54" height="54" viewBox="0 0 54 54" fill="none" xmlns="http://www.w3.org/2000/svg">
<path fill-rule="evenodd" clip-rule="evenodd" d="M27 54C41.9117 54 54 41.9117 54 27C54 12.0883 41.9117 0 27 0C12.0883 0 0 12.0883 0 27C0 41.9117 12.0883 54 27 54ZM14.85 37.8H20.3727V21.2318H14.85V37.8ZM14.85 16.2603C14.85 17.7845 16.0849 19.0227 17.6125 19.0227C19.1345 19.0227 20.3727 17.7845 20.3727 16.2603C20.3727 14.7382 19.1345 13.5 17.6125 13.5C16.0871 13.5 14.85 14.736 14.85 16.2603ZM34.945 37.8H40.2546V28.7063C40.2546 24.2417 39.2605 20.8077 33.8813 20.8077C31.2967 20.8077 29.5637 22.1817 28.8545 23.4851H28.7828V21.2197H23.6864V37.8H28.9948V29.5976C28.9948 27.4349 29.4201 25.3407 32.1847 25.3407C34.9086 25.3407 34.945 27.8138 34.945 29.7368V37.8Z" fill="white"/>
</svg>
